<svg width="44" height="44" viewBox="0 0 44 44" fill="none" xmlns="http://www.w3.org/2000/svg">
<path d="M39.8121 13.4426C40.2457 13.0077 41.0058 12.5461 40.993 12.1136C40.9813 11.6601 40.1944 11.2497 39.7969 10.7776C39.4588 10.3766 39.2525 10.3672 38.8678 10.7624C37.1261 12.5531 35.332 14.2948 33.5879 16.0842C33.2207 16.4608 33.019 16.4328 32.7055 16.0656C32.372 15.6774 32.0025 15.3183 31.6189 14.9791C31.3555 14.7459 31.3963 14.6002 31.6306 14.3799C32.1435 13.8972 32.632 13.3878 33.1298 12.89C35.6677 10.3521 38.1986 7.80835 40.7505 5.2856C41.0734 4.96618 41.0851 4.78548 40.7459 4.4952C40.3588 4.16295 39.9893 3.79923 39.6605 3.40869C39.3761 3.07061 39.2082 3.14639 38.9307 3.42501C36.2658 6.10981 33.5903 8.78411 30.909 11.4526C30.4473 11.9119 30.0253 12.7303 29.4914 12.7093C29.0146 12.6895 28.5949 11.8769 28.1041 11.4701C27.7042 11.1378 27.8068 10.9431 28.1286 10.6295C29.58 9.21196 31.0069 7.76872 32.4397 6.33247C32.9048 5.86499 33.7057 5.40218 33.7278 4.90789C33.7547 4.34365 32.8628 3.95078 32.4397 3.42384C32.1412 3.05313 31.9593 3.13473 31.6586 3.439C28.0598 7.05876 24.4505 10.6703 20.8273 14.2668C20.5067 14.5862 20.516 14.7389 20.8331 15.0502C22.6471 16.8303 24.4366 18.635 26.2319 20.4349C26.7133 20.9164 27.5597 21.4107 27.5609 21.9003C27.562 22.5135 26.648 22.9262 26.1841 23.4765C25.9789 23.719 25.8437 23.705 25.6373 23.4788C25.2771 23.0848 24.8539 22.7455 24.5182 22.334C24.1777 21.9167 23.9446 21.9924 23.6368 22.3573C23.3489 22.6989 23.0306 23.023 22.6855 23.3063C22.3032 23.621 22.2938 23.846 22.6797 24.1806C23.16 24.5991 23.9189 25.0736 23.9376 25.5492C23.9586 26.0773 23.0971 26.462 22.6937 26.9715C22.3696 27.3818 22.1714 27.2769 21.8602 26.9528C20.8133 25.8605 19.7361 24.7985 18.6426 23.6968C17.506 24.8428 16.4008 25.9433 15.3166 27.0624C15.0846 27.3014 14.9552 27.3084 14.7186 27.0683C13.1121 25.442 11.4975 23.825 9.86893 22.2209C9.61712 21.9726 9.64743 21.8351 9.88525 21.6171C10.2933 21.2428 10.6931 20.8535 11.0615 20.4384C11.3087 20.1598 11.4591 20.182 11.7109 20.4408C12.6773 21.4364 13.6787 22.3993 14.6428 23.3984C14.9238 23.6886 15.0788 23.7178 15.3808 23.4089C16.9184 21.8362 18.4712 20.2764 20.0497 18.7434C20.4169 18.3867 20.3913 18.206 20.0427 17.8586C15.122 12.9623 10.2175 8.04967 5.30839 3.14056C5.26292 3.09509 5.21163 3.05546 5.17432 3.00416C4.97614 2.7302 4.80361 2.73953 4.57395 2.99484C4.21605 3.3912 3.84883 3.7864 3.43847 4.12331C3.05377 4.43924 3.11905 4.62227 3.44663 4.94752C6.5721 8.04501 9.67191 11.167 12.7974 14.2645C13.1191 14.5839 13.1646 14.7354 12.8125 15.0817C10.031 17.8271 7.2739 20.5982 4.51216 23.3646C4.03302 23.8437 3.57137 24.3392 3.10156 24.8276C3.59352 25.3301 4.09714 25.8232 4.57395 26.3408C4.80127 26.5879 4.94233 26.5926 5.18132 26.3431C5.9041 25.5865 6.66653 24.8684 7.38931 24.1107C7.65977 23.8262 7.83581 23.7388 8.12725 24.0897C8.45367 24.4825 8.82089 24.8486 9.2126 25.1774C9.5565 25.4653 9.48422 25.6425 9.19977 25.9235C7.60148 27.4973 6.02068 29.0874 4.43755 30.6752C3.98523 31.1287 3.21231 31.5775 3.19016 32.0555C3.16568 32.5952 4.02719 32.9764 4.43289 33.4859C4.7628 33.8986 4.97498 33.8193 5.31189 33.4754C7.19929 31.5565 9.11933 29.6703 11.0056 27.7502C11.325 27.425 11.5104 27.418 11.7948 27.7607C12.0664 28.0883 12.3707 28.3972 12.7006 28.6654C13.125 29.0104 13.1856 29.2588 12.7263 29.6645C11.9755 30.3278 11.3028 31.0785 10.5824 31.7768C10.3714 31.9809 10.3259 32.1149 10.5661 32.3353C11.0067 32.7386 11.4346 33.1595 11.8344 33.6036C12.0688 33.8648 12.2087 33.8286 12.4337 33.5966C13.1599 32.8435 13.9294 32.1312 14.6393 31.363C14.9599 31.0156 15.1406 31.0541 15.4192 31.384C15.7212 31.7419 16.0522 32.0846 16.4148 32.3784C16.8193 32.706 16.7564 32.917 16.4078 33.2586C14.4878 35.1448 12.6015 37.0648 10.6826 38.9511C10.3609 39.2682 10.3562 39.4407 10.685 39.7438C11.1676 40.188 11.5978 40.6916 12.1236 41.25C12.3311 40.9947 12.4651 40.7965 12.6307 40.631C15.7083 37.5475 18.7953 34.4721 21.8637 31.3781C22.1714 31.0669 22.3463 31.0121 22.6424 31.3688C22.9548 31.7454 23.3092 32.0939 23.6823 32.411C24.0239 32.7013 24.0122 32.8902 23.6893 33.2061C22.1166 34.7438 20.565 36.3036 19.018 37.8681C18.5447 38.3472 17.6773 38.7972 17.7216 39.3265C17.7659 39.8522 18.5878 40.3022 19.0436 40.8093C19.2838 41.0763 19.44 41.0903 19.6976 40.8187C20.4041 40.0761 21.1572 39.3766 21.859 38.6305C22.1551 38.3146 22.3381 38.2726 22.6517 38.6142C23.3302 39.3533 24.053 40.0504 24.8131 40.821C25.0533 40.5587 25.2654 40.322 25.4823 40.0912C25.832 39.7205 26.4394 39.3731 26.4708 38.9779C26.5081 38.5151 25.8297 38.2085 25.4764 37.8214C25.0463 37.3505 24.25 36.9133 24.236 36.4423C24.2186 35.8944 25.0754 35.5109 25.4904 35.0014C25.7877 34.6388 25.9801 34.703 26.2843 35.0119C28.0831 36.8387 29.9087 38.6386 31.7087 40.4631C31.9757 40.7324 32.1296 40.7872 32.3988 40.4713C32.7439 40.0667 33.1275 39.6879 33.5297 39.3393C33.8503 39.0618 33.8351 38.8893 33.532 38.5955C32.3068 37.4052 31.1083 36.187 29.8994 34.9781C27.9677 33.0476 26.0348 31.117 24.053 29.1352C24.5088 28.7027 24.974 28.318 25.3668 27.8715C25.7352 27.4541 25.9614 27.418 26.3892 27.8505C30.5394 32.038 34.7211 36.1928 38.8736 40.3768C39.2385 40.7452 39.4367 40.7277 39.7421 40.3593C40.0137 40.0318 40.318 39.724 40.6479 39.4547C41.0629 39.1155 41.0956 38.8963 40.6712 38.4789C37.7032 35.5575 34.7794 32.5906 31.8113 29.6679C31.3776 29.2401 31.4441 29.0384 31.8346 28.6514C34.8109 25.7066 37.7591 22.7339 40.7319 19.7868C41.0455 19.4767 41.0828 19.296 40.7389 19.0034C40.3658 18.6863 40.0184 18.333 39.6978 17.9635C39.418 17.6417 39.2385 17.6138 38.9156 17.946C37.4712 19.4312 35.9953 20.8861 34.5287 22.3492C34.0752 22.8003 33.5856 23.6187 33.1589 23.5896C32.6577 23.5546 32.2286 22.7549 31.7262 22.3375C31.3357 22.0134 31.4126 21.8246 31.7402 21.5016C34.4425 18.8262 37.1261 16.1332 39.8121 13.4426ZM13.3744 18.1384C13.8734 17.6429 14.3689 17.1439 14.8678 16.6485C14.9109 16.6054 14.9716 16.5809 15.0357 16.5401C15.1021 16.5995 15.1662 16.652 15.2257 16.7091C15.3178 16.7977 15.4087 16.8875 15.4973 16.9807C15.9182 17.4226 16.3379 17.8667 16.7587 18.3086C16.2388 18.8425 15.7177 19.3729 15.2024 19.9103C15.0683 20.0502 14.9634 20.0456 14.8305 19.9103C14.3525 19.4254 13.8676 18.9474 13.3861 18.4648C13.2835 18.361 13.2555 18.2561 13.3744 18.1384ZM20.094 29.5549C19.6219 30.0119 19.1765 30.7859 18.6671 30.8314C18.1448 30.878 17.7496 30.0037 17.2448 29.5957C16.8718 29.2937 16.8671 29.0804 17.239 28.7656C17.724 28.3553 18.1448 27.5521 18.6193 27.5322C19.1567 27.5101 19.5578 28.3425 20.0369 28.782C20.1721 28.9067 20.2852 29.0547 20.4228 29.2063C20.2945 29.3427 20.1989 29.4534 20.094 29.5549ZM31.0757 25.8034C30.6408 26.2394 30.1944 26.6649 29.7735 27.1149C29.5823 27.3201 29.4622 27.3166 29.2734 27.1137C28.8665 26.68 28.448 26.2557 28.0108 25.8523C27.7719 25.632 27.7415 25.4816 27.9969 25.2473C28.5145 24.7763 28.9889 23.9055 29.5089 23.8845C30.0859 23.8612 30.5278 24.7775 31.0547 25.2578C31.1456 25.3406 31.2156 25.4455 31.3053 25.5516C31.2167 25.6495 31.1491 25.7299 31.0757 25.8034ZM31.0256 18.6233C30.635 19.0162 30.2165 19.3857 29.8586 19.8054C29.5846 20.1272 29.4331 20.0421 29.179 19.7844C27.6075 18.1908 26.029 16.6054 24.4296 15.0397C24.1241 14.7413 24.1358 14.5746 24.4459 14.3193C24.967 13.8891 25.3622 13.0031 25.9288 13.0334C26.4242 13.059 26.8824 13.8588 27.3498 14.3239C28.5588 15.527 29.763 16.7336 30.9673 17.9402C31.0838 18.0568 31.1899 18.1815 31.3135 18.3167C31.1969 18.4415 31.1142 18.5347 31.0256 18.6233Z" fill="white"/>
<path d="M24.8024 3.01712C25.355 3.59418 25.8633 4.1386 26.3902 4.66553C26.5709 4.84623 26.5604 4.95698 26.3844 5.13185C24.476 7.02974 22.5735 8.9323 20.6756 10.8407C20.4995 11.0179 20.3981 11.0202 20.2256 10.836C19.7861 10.3697 19.3337 9.91505 18.8651 9.47789C18.6378 9.26571 18.717 9.13981 18.8977 8.96611C19.3139 8.56741 19.7021 8.13723 20.1288 7.75136C20.3934 7.51121 20.4109 7.36082 20.1381 7.10085C19.3792 6.3804 18.6623 5.61681 17.908 4.8917C17.6527 4.64572 17.5431 4.4895 17.8742 4.20505C18.3895 3.76205 18.8301 2.93318 19.3582 2.88538C19.8933 2.83642 20.3282 3.71659 20.8201 4.1759C21.1943 4.52564 21.5662 4.88237 21.9043 5.26591C22.1584 5.55503 22.3345 5.59233 22.6038 5.27757C22.936 4.88936 23.3254 4.55012 23.6844 4.18407C24.0423 3.81801 24.3932 3.44379 24.8024 3.01595V3.01712Z" fill="white"/>
<path d="M4.88977 41.1101C4.80117 41.0402 4.71374 40.9831 4.64029 40.9108C4.18564 40.4608 3.74614 39.9957 3.27866 39.5608C3.06066 39.3568 3.11428 39.2461 3.30081 39.063C4.33369 38.0465 5.36191 37.0252 6.37381 35.9877C6.61513 35.7405 6.75269 35.7534 6.97652 35.9982C7.37872 36.4388 7.80772 36.855 8.24023 37.2654C8.42676 37.4426 8.48388 37.5557 8.26704 37.7678C7.20152 38.8112 6.15231 39.8732 5.09728 40.9271C5.03899 40.9854 4.97371 41.0379 4.89094 41.1113L4.88977 41.1101Z" fill="white"/>
<path d="M15.8175 6.3616C15.2498 6.90252 14.717 7.39215 14.2076 7.90393C14.0129 8.09861 13.894 8.10794 13.6946 7.90626C12.6618 6.85589 11.623 5.81135 10.5692 4.78196C10.3418 4.55929 10.3593 4.42873 10.5785 4.22472C11.0926 3.74441 11.5869 3.24313 12.0894 2.75C12.579 3.21864 13.0709 3.68379 13.5571 4.15593C14.2915 4.86939 15.0225 5.58635 15.8175 6.36393V6.3616Z" fill="white"/>
</svg>
