<svg width="52" height="52" viewBox="0 0 52 52" fill="none" xmlns="http://www.w3.org/2000/svg">
<path d="M50.7007 21.1656C48.9538 20.15 46.6382 20.0281 44.6882 20.5969C44.4445 18.4844 43.0632 16.6562 41.4382 15.3563L40.7882 14.8281L40.2195 15.4781C39.1226 16.7375 38.7976 18.85 38.9601 20.475C39.082 21.6531 39.4476 22.8719 40.1788 23.8469C39.6101 24.1719 39.0007 24.6188 38.432 24.8219C37.2945 25.2281 36.0351 25.6344 34.8163 25.6344H32.0945V19.9063H26.8132V9.75H20.7195V14.625H10.5632V19.9063H5.28197V25.5938H0.731966L0.650716 26.2031C0.447591 28.8031 0.772591 31.3219 1.86947 33.7188L2.31634 34.6125L2.35697 34.6938C5.56634 40.1375 11.1726 42.4125 17.307 42.4125C29.1695 42.4125 38.9601 37.0906 43.4288 25.9188C46.4351 26.0813 49.5226 25.1875 50.9851 22.3031L51.3507 21.5719L50.7007 21.1656ZM11.3757 15.8438H15.4382V20.3125H11.3757V15.8438ZM16.6976 33.8C16.6976 34.4906 16.1288 35.0594 15.4382 35.0594C14.7476 35.0594 14.1788 34.4906 14.1788 33.8C14.1788 33.1094 14.7476 32.5406 15.4382 32.5406C16.1288 32.5813 16.6976 33.1094 16.6976 33.8ZM11.3757 21.125H15.4382V25.5938H11.3757V21.125ZM6.09447 21.125H10.5632V25.5938H6.09447V21.125ZM17.3476 41.5188C10.9288 41.4781 7.47572 39.325 4.63197 36.4813C5.48509 36.5219 6.29759 36.5625 7.02884 36.5625C7.67884 36.5625 8.32884 36.5625 8.93822 36.5219C10.5226 36.4406 11.9038 36.2375 13.0413 35.9125C13.9757 38.0656 15.682 40.0563 18.7288 41.5188H17.3476ZM20.7195 25.5938H16.2507V21.125H20.7195V25.5938ZM20.7195 20.3125H16.2507V15.8438H20.7195V20.3125ZM26.0007 25.5938H21.532V21.125H26.0007V25.5938ZM26.0007 20.3125H21.532V15.8438H26.0007V20.3125ZM26.0007 15.0313H21.532V10.5625H26.0007V15.0313ZM31.282 25.5938H26.8132V21.125H31.282V25.5938ZM15.7632 32.9875C15.682 32.9469 15.5601 32.9063 15.4382 32.9063C14.9507 32.9063 14.5445 33.3125 14.5445 33.8C14.5445 34.2875 14.9507 34.6938 15.4382 34.6938C15.9257 34.6938 16.332 34.2875 16.332 33.8C16.332 33.6781 16.2913 33.5563 16.2507 33.475C16.1695 33.5969 16.0882 33.6781 15.9257 33.6781C15.7226 33.6781 15.5601 33.5156 15.5601 33.3125C15.6007 33.15 15.682 33.0281 15.7632 32.9875Z" fill="#019BC6"/>
</svg>
