<svg width="52" height="52" viewBox="0 0 52 52" fill="none" xmlns="http://www.w3.org/2000/svg">
<path fill-rule="evenodd" clip-rule="evenodd" d="M50.0736 31.1935C49.8908 30.0081 48.895 29.2317 47.7368 29.1793C47.3176 29.1602 46.8918 29.2041 46.4738 29.2573C45.9688 29.3215 45.4699 29.4353 44.9662 29.5104C44.618 29.5624 44.265 29.5864 43.9173 29.6221L43.9087 29.577C44.5579 28.351 45.2343 27.1383 45.8486 25.8948C46.3194 24.9409 46.7224 23.9525 47.1388 22.9722C47.8278 21.348 48.3783 19.6735 48.8341 17.9717C49.2708 16.3422 49.6446 14.6949 49.762 13.0045C49.8091 12.3293 49.8416 11.6513 49.8379 10.9753C49.8347 10.4362 49.7766 9.89625 49.7226 9.35878C49.6616 8.74291 49.4756 8.15913 49.218 7.59728C48.8784 6.85709 48.3519 6.24975 47.7978 5.67288C47.3541 5.21097 46.8662 4.79009 46.3824 4.36963C45.6926 3.76959 44.917 3.29063 44.1114 2.86528C43.1989 2.38035 42.232 2.00534 41.2311 1.74809C40.6246 1.59331 40.0043 1.47834 39.39 1.35566C39.169 1.31097 38.9476 1.21875 38.7266 1.21875H34.5662C34.4159 1.21875 34.2668 1.29634 34.1152 1.31341C33.1191 1.42431 32.1348 1.612 31.1789 1.90816C30.8214 2.01906 30.4948 1.94919 30.1551 1.91791C29.8947 1.89394 29.6388 1.82406 29.3784 1.81106C28.3863 1.7615 27.393 1.68878 26.4014 1.69934C25.4512 1.70909 24.5107 1.8655 23.5909 2.12672C22.8211 2.34528 22.0679 2.61219 21.3781 3.01681C21.0828 3.18988 20.8488 3.15738 20.5433 3.06922C19.5167 2.77306 18.4828 2.49478 17.4399 2.26119C16.7899 2.11575 16.1216 2.04344 15.4578 1.97397C14.8208 1.90777 14.1814 1.86792 13.5411 1.85453C12.9163 1.84113 12.287 1.84153 11.6651 1.89678C10.6744 1.98291 9.6979 2.18931 8.75713 2.51144C7.71521 2.8672 6.74166 3.39821 5.87844 4.08159C4.99809 4.77831 4.29203 5.629 3.72409 6.60034C3.12569 7.62531 2.71538 8.72259 2.46025 9.87513C2.32213 10.4995 2.23478 11.1414 2.14013 11.7756C2.11047 11.973 2.4375 12.1704 2.03125 12.3671V15.1271C2.4375 15.3108 2.11575 15.494 2.13931 15.678C2.19578 16.1204 2.24575 16.5665 2.3205 17.0056C2.43872 17.7007 2.57887 18.3938 2.72187 19.0844C2.92044 20.0497 3.1298 21.0127 3.34994 21.9733C3.51081 22.672 3.69403 23.3667 3.88578 24.0577C4.17869 25.1132 4.46713 26.1706 4.79822 27.2143C5.10575 28.184 5.45797 29.1399 5.80734 30.0958C6.29119 31.4182 6.8705 32.6978 7.56519 33.9243C8.16603 34.9863 8.85259 35.9808 9.77356 36.7989C10.3805 37.338 11.0561 37.7524 11.8426 37.9596C12.4605 38.1221 13.0886 38.1416 13.7211 38.012C14.4418 37.8654 15.115 37.5429 15.6808 37.0732C15.7471 37.0187 15.8198 36.9773 15.8982 37.0772C16.1968 37.4554 16.5965 37.7077 17.0146 37.9259C18.1427 38.5141 19.372 38.6904 20.6208 38.7623C20.9231 38.7798 21.2286 38.7363 21.5333 38.7278C22.1268 38.7116 22.7037 38.5958 23.2712 38.4317C23.5686 38.3455 23.8591 38.2363 24.1617 38.1343C24.1776 38.4564 24.1979 38.7668 24.2072 39.0772L24.2495 40.7696C24.2572 41.0272 24.2673 41.2856 24.2913 41.5419C24.3527 42.2029 24.4128 42.8643 24.4916 43.5232C24.5464 43.9774 24.6033 44.4352 24.7102 44.8784C24.9244 45.7732 25.2177 46.6471 25.5868 47.4898C25.9402 48.3078 26.4833 49.0299 27.1712 49.5962C28.0731 50.3421 29.1302 50.6602 30.2717 50.7191C30.7438 50.7439 31.2293 50.7207 31.694 50.6362C32.4327 50.5049 33.1633 50.332 33.8825 50.1183C35.3413 49.6779 36.6023 48.9174 37.5444 47.6885C38.0807 46.9881 38.521 46.2304 38.8038 45.394C39.037 44.7029 39.2568 44.005 39.4314 43.2977C39.5696 42.7403 39.6378 42.1655 39.7219 41.5963C39.7776 41.2198 39.8109 40.8395 39.8458 40.4601C39.9027 39.8438 39.9608 39.2279 40.0018 38.6104C40.0303 38.1806 40.029 37.7488 40.0461 37.3181C40.0514 37.1869 40.0725 37.0565 40.0847 36.9257C40.0961 36.8046 40.157 36.7628 40.2805 36.7648C40.7156 36.7713 41.1515 36.7827 41.5854 36.7632C42.0717 36.7413 42.5624 36.7205 43.041 36.6401C43.7229 36.5262 44.3993 36.3815 45.0682 36.2066C45.8575 36.0003 46.5814 35.6306 47.2782 35.2093C48.0898 34.7189 48.8296 34.1437 49.4301 33.4027C49.9521 32.7563 50.1995 32.0093 50.0736 31.1935ZM48.6874 31.5924C48.6606 31.9642 48.4904 32.2827 48.2434 32.5548C47.0779 33.8398 45.6158 34.6194 43.9433 35.0033C43.3079 35.1488 42.6522 35.2243 42.0018 35.2844C41.4461 35.3333 40.8878 35.3465 40.3305 35.3238C39.9218 35.3084 39.5163 35.215 39.0987 35.1548C39.0569 35.5367 39.0171 35.9344 38.9687 36.3313L38.7741 37.8528C38.7152 38.335 38.6693 38.8188 38.6088 39.3006C38.5495 39.7682 38.4755 40.2342 38.4134 40.7018C38.3553 41.1373 38.3126 41.5748 38.248 42.0095C38.1485 42.6758 38.0534 43.3436 37.9234 44.0046C37.7674 44.7948 37.5282 45.5601 37.1378 46.2727C36.6616 47.1425 35.9864 47.8051 35.1272 48.2958C34.2416 48.802 33.2735 49.0653 32.292 49.2854C31.5973 49.4414 30.8815 49.467 30.1779 49.4037C28.9575 49.2932 27.9159 48.7711 27.1286 47.825C26.377 46.9219 25.8684 45.8868 25.6864 44.7151C25.6014 44.1574 25.5349 43.597 25.4869 43.0349C25.433 42.4102 25.3925 41.7844 25.3654 41.158C25.3294 40.3633 25.3028 39.5682 25.2854 38.7729C25.2639 37.7955 25.257 36.818 25.2432 35.8406L25.2407 35.8032C24.7435 36.1014 24.2548 36.428 23.7364 36.697C23.1306 37.0103 22.4674 37.1973 21.7872 37.2466C21.2518 37.2873 20.7094 37.3242 20.1764 37.2816C19.3026 37.2113 18.4295 37.0744 17.6471 36.6442C17.3298 36.4695 16.9987 36.257 16.7802 35.9779C16.2561 35.3092 16.5072 34.4642 17.2973 34.0576C17.8433 33.776 18.4393 33.6586 19.0312 33.5217C19.5464 33.4048 20.0562 33.2654 20.5591 33.1037C21.0555 32.9412 21.3688 32.5386 21.6779 32.1437L22.1678 31.5136C21.9635 31.4921 21.7709 31.4702 21.5784 31.4523C20.9938 31.397 20.436 31.2362 19.9026 30.9997C19.446 30.7978 19.4391 30.7759 19.1043 31.1391C18.5453 31.746 18.0018 32.3672 17.4541 32.9843C17.0511 33.438 16.6506 33.8947 16.2496 34.3497C15.8523 34.7998 15.4802 35.2755 15.0524 35.6943C14.417 36.3163 13.6512 36.6905 12.7376 36.6482C12.1513 36.6214 11.6147 36.4158 11.1321 36.0799C10.1359 35.386 9.46481 34.4155 8.85381 33.3962C8.07097 32.0901 7.47013 30.6987 6.95581 29.2691C6.59994 28.2811 6.24244 27.2923 5.93166 26.2901C5.59406 25.2009 5.29791 24.0979 5.00663 22.9954C4.78905 22.1624 4.58832 21.3251 4.40456 20.4839C4.19029 19.5287 3.99202 18.57 3.80981 17.6081C3.68875 16.9585 3.61847 16.2996 3.52056 15.6455C3.38853 14.7639 3.36416 13.8743 3.41209 12.989C3.45475 12.1916 3.56931 11.3961 3.68306 10.6039C3.84069 9.50788 4.20184 8.47356 4.72144 7.49694C5.03953 6.89853 5.43441 6.35456 5.89103 5.84919C6.64056 5.01963 7.54772 4.42 8.55684 3.96988C9.26209 3.65544 10.0072 3.46613 10.7664 3.31825C11.8934 3.09888 13.0305 3.10741 14.168 3.13097C14.6652 3.14113 15.1604 3.23172 15.6573 3.28088C16.7269 3.38731 17.7755 3.61238 18.8106 3.89025C19.565 4.09256 20.304 4.35459 21.0523 4.58209C21.1274 4.60484 21.2375 4.60281 21.2989 4.56259C22.3129 3.90081 23.4211 3.46409 24.5997 3.21425C25.0469 3.11959 25.5084 3.07816 25.9659 3.04891C26.522 3.01356 27.0827 2.98106 27.6376 3.01316C28.3047 3.05134 28.9685 3.14966 29.6315 3.24066C29.9532 3.28453 30.2673 3.39625 30.5898 3.42672C30.7442 3.44134 30.9079 3.32841 31.0712 3.29063C31.9036 3.09847 32.7324 2.88438 33.5721 2.73244C34.1973 2.6195 34.8359 2.56628 35.4717 2.52972C36.1806 2.48909 36.8948 2.45944 37.6033 2.49356C38.5005 2.53799 39.3918 2.66349 40.2663 2.86853C41.3538 3.12163 42.3971 3.48928 43.3887 3.99953C44.1297 4.38059 44.8342 4.82259 45.4683 5.36616C45.8839 5.72284 46.3093 6.07506 46.6846 6.47238C47.1478 6.96231 47.6202 7.45266 47.9107 8.08031C48.1293 8.55359 48.2853 9.04353 48.3283 9.56191C48.3819 10.2062 48.4469 10.853 48.4408 11.4981C48.4352 12.1152 48.3511 12.7319 48.2913 13.3473C48.1557 14.7505 47.8506 16.1233 47.4801 17.4777C47.1701 18.5965 46.8193 19.7036 46.4283 20.7968C46.0712 21.8047 45.6593 22.7943 45.2428 23.7798C44.9363 24.5099 44.6032 25.2285 44.2443 25.9342C43.563 27.2691 42.8545 28.5903 42.0351 29.8476C41.8937 30.0649 41.7597 30.2876 41.6215 30.5094C41.979 30.7507 42.3841 30.8356 42.7919 30.8795C43.1799 30.9217 43.5756 30.9469 43.9632 30.9181C44.5835 30.8722 45.2018 30.7836 45.8185 30.6971C46.4295 30.6118 47.0283 30.4379 47.6556 30.4838C48.282 30.5293 48.7301 31.0054 48.6874 31.5924ZM39.7447 30.2303C39.4786 29.8866 39.2072 29.547 38.9468 29.1992C38.5381 28.6532 38.2444 28.0434 37.9494 27.4308C37.6699 26.8503 37.3271 26.3006 37.0325 25.7266C36.5186 24.7252 35.9954 23.727 35.5221 22.7061C34.9269 21.4236 34.4577 20.0956 34.3098 18.6749C34.2473 18.0737 34.2314 17.4732 34.3529 16.8777C34.5475 15.9266 35.0443 15.1828 35.8796 14.6725C36.6543 14.1993 37.5176 14.0465 38.402 13.9986C38.9508 13.9689 39.5021 13.9933 40.0717 13.9933L40.0526 13.897C39.6983 13.1564 39.3673 12.4032 38.9797 11.6801C38.4329 10.6596 37.7333 9.73944 36.9541 8.88631C36.3768 8.25459 35.7516 7.66838 35.0667 7.15041C34.3931 6.64056 33.6834 6.18516 32.9262 5.81263C32.0231 5.36859 31.0826 5.02531 30.0958 4.80634C29.1476 4.59591 28.1933 4.46713 27.2208 4.45656C26.3912 4.44763 25.5669 4.485 24.7589 4.67228C23.5393 4.95463 22.4238 5.45675 21.4533 6.27006C20.9163 6.72039 20.4365 7.23473 20.0245 7.80163C19.5386 8.46909 19.1466 9.18978 18.8114 9.94541C18.3515 10.9822 18.0359 12.0612 17.8202 13.1702C17.7121 13.7231 17.6276 14.2809 17.5415 14.8383C17.5114 15.0333 17.509 15.2328 17.4915 15.4562C17.6414 15.3782 17.7495 15.3181 17.86 15.2644L18.2195 15.1032C19.4354 14.547 20.6952 14.1891 22.0492 14.2301C22.6245 14.2476 23.1749 14.3613 23.6864 14.6132C24.6675 15.0971 25.2415 15.9197 25.491 16.9609C25.6632 17.6796 25.781 18.4125 25.8956 19.1433C25.9854 19.7141 26.0772 20.291 26.0878 20.8666C26.1028 21.708 26.0601 22.5509 26.0142 23.3919C25.9748 24.1069 25.8269 24.8119 25.5755 25.4824C25.1205 26.6983 24.6135 27.8943 24.1398 29.1033C23.9834 29.5027 23.8631 29.9163 23.7153 30.3554C23.9436 30.3554 24.1288 30.3538 24.3141 30.3562C24.3864 30.3574 24.4603 30.3595 24.5302 30.3761C25.0746 30.5045 25.5466 30.7511 25.9338 31.1699C26.4501 31.7273 26.7211 32.3777 26.7349 33.1305C26.7426 33.5477 26.6988 33.9662 26.7008 34.3834C26.7093 36.3277 26.7239 38.272 26.7402 40.2159C26.743 40.5336 26.7589 40.8517 26.7816 41.169C26.8292 41.8332 26.8771 42.4978 26.9421 43.1604C26.9876 43.6304 27.051 44.0997 27.1253 44.5664C27.2305 45.2278 27.5316 45.8165 27.8732 46.3791C28.1673 46.863 28.5496 47.2741 29.0534 47.5577C29.9093 48.0395 30.8311 48.0797 31.7602 47.9022C32.3879 47.7823 33.0042 47.5898 33.6135 47.3911C34.2128 47.1988 34.76 46.8717 35.2129 46.4348C35.6399 46.0208 35.943 45.5163 36.1473 44.9593C36.5438 43.8791 36.6673 42.7416 36.8314 41.613C36.8928 41.1905 36.946 40.7668 37.0021 40.3435C37.0658 39.8617 37.1304 39.3803 37.1922 38.8988C37.2377 38.5401 37.2791 38.1806 37.323 37.8219C37.3856 37.3068 37.4518 36.792 37.5115 36.2765C37.5574 35.878 37.5964 35.4778 37.637 35.0785C37.6894 34.5682 37.7459 34.058 37.791 33.5469C37.8259 33.1589 37.8117 32.7641 37.8804 32.3834C38.0067 31.6855 38.3366 31.0915 38.9553 30.7076C39.2141 30.5472 39.5062 30.4415 39.7934 30.3058L39.7447 30.2303ZM16.3459 27.3654C16.0373 26.6398 15.8514 25.868 15.7958 25.0815C15.7438 24.3401 15.832 23.6015 15.9079 22.8633C15.9819 22.1483 16.0432 21.4301 16.0648 20.7118C16.1005 19.5313 16.0209 18.3523 15.9644 17.1726C15.9303 16.4702 16.0119 15.7593 16.0745 15.0552C16.131 14.4211 16.2013 13.7853 16.3211 13.1605C16.5222 12.1119 16.7891 11.0784 17.1685 10.0766C17.5289 9.12681 17.9428 8.20178 18.5274 7.36897C18.928 6.79778 19.3826 6.26397 19.8193 5.70578L19.6897 5.65988C18.2687 5.20853 16.8244 4.85591 15.3392 4.70194C14.6368 4.62922 13.9319 4.58656 13.2275 4.54472C13.0114 4.53172 12.792 4.56097 12.5751 4.58169C12.038 4.63288 11.4944 4.65319 10.9659 4.75394C10.0665 4.92497 9.20359 5.21259 8.4045 5.681C7.68706 6.10147 7.08459 6.64503 6.58003 7.29706C6.02266 8.01694 5.64769 8.83106 5.37834 9.69922C5.06025 10.7234 4.90872 11.7772 4.86769 12.8408C4.83194 13.7731 4.81406 14.7107 4.97494 15.6394C5.09478 16.3308 5.17481 17.0296 5.30684 17.7182C5.48681 18.657 5.67978 19.5938 5.90281 20.5229C6.22172 21.853 6.54022 23.1851 6.91803 24.4989C7.27959 25.7579 7.68747 27.0055 8.12947 28.238C8.49103 29.2439 8.90906 30.2311 9.34944 31.2053C9.63625 31.8398 9.98359 32.4504 10.3476 33.0448C10.7348 33.6757 11.1751 34.2745 11.7727 34.7323C12.5267 35.3104 13.1105 35.4002 13.8767 34.7661C14.2049 34.4943 14.4824 34.1587 14.768 33.839C15.2218 33.3312 15.6597 32.8096 16.1115 32.3001C16.6867 31.6509 17.2693 31.0087 17.8474 30.3627C17.9697 30.2262 18.0871 30.0857 18.2061 29.9475L18.0095 29.7749C17.2955 29.0944 16.7292 28.2742 16.3459 27.3654ZM38.1566 8.0405C38.6293 8.59002 39.0778 9.15985 39.5009 9.74838C40.3134 10.8895 40.9626 12.1217 41.4408 13.44C41.6524 14.0209 41.8214 14.6075 41.7458 15.2433C41.6934 15.6886 41.6979 16.1403 41.6585 16.588C41.6256 16.9605 41.5667 17.331 41.5183 17.7023C41.446 18.2622 41.3412 18.8203 41.3099 19.3826C41.2803 19.9176 41.3112 20.4583 41.3449 20.9946C41.379 21.5394 41.4525 22.0817 41.5025 22.6257C41.559 23.2424 41.6349 23.8591 41.6524 24.477C41.6666 24.9844 41.6215 25.495 41.5773 26.0016C41.5244 26.6118 41.3697 27.2025 41.1389 27.7692C40.9768 28.1682 40.783 28.5549 40.5998 28.9543L40.6733 29.0323L40.7851 29.1188L40.8976 28.9173C41.8479 27.4217 42.6925 25.8616 43.4253 24.2483C43.8941 23.2068 44.3394 22.1549 44.7606 21.0933C45.4204 19.4423 45.9424 17.745 46.3462 16.014C46.5274 15.2368 46.6659 14.4479 46.789 13.6589C46.8849 13.0423 46.9649 12.4183 46.9828 11.7959C47.0019 11.1357 46.9653 10.4703 46.9044 9.81175C46.8589 9.3145 46.7362 8.814 46.4246 8.40978C45.9237 7.75897 45.383 7.13659 44.718 6.64422C44.1582 6.22944 43.6004 5.80409 42.9995 5.45513C42.0469 4.90263 41.0158 4.53456 39.9384 4.28391C38.8871 4.03894 37.8219 3.93331 36.7498 3.91097C36.1177 3.89756 35.4827 3.96541 34.8518 4.02472C34.2802 4.07834 33.7123 4.16975 33.1366 4.24531C33.7541 4.59266 34.3631 4.90141 34.9375 5.26541C36.1453 6.03038 37.2275 6.95094 38.1566 8.0405ZM22.4652 29.4588C22.8556 28.2104 23.3874 27.0185 23.9025 25.8192C24.3202 24.8467 24.5485 23.8221 24.6244 22.7699C24.6622 22.2511 24.6517 21.7258 24.6261 21.2054C24.6007 20.6265 24.5475 20.0491 24.4668 19.4752C24.3588 18.7436 24.2357 18.0115 24.0626 17.2933C23.8749 16.5161 23.4016 15.975 22.5908 15.7755C22.0968 15.654 21.606 15.6589 21.1067 15.7377C19.8872 15.9299 18.7708 16.3792 17.7308 17.0373C17.5216 17.1698 17.4066 17.2766 17.4428 17.5768C17.5191 18.2126 17.5358 18.8585 17.5329 19.5004C17.5289 20.4088 17.4903 21.3172 17.4558 22.2251C17.4444 22.5209 17.4017 22.815 17.37 23.1095C17.3213 23.5605 17.2274 24.011 17.2303 24.4611C17.2331 24.9251 17.2807 25.4 17.3932 25.8493C17.7507 27.274 18.5079 28.4399 19.749 29.2626C20.5124 29.7684 21.357 30.0235 22.284 30.0718C22.347 29.859 22.4031 29.6579 22.4652 29.4588ZM21.0084 17.236C20.8451 16.8931 20.9385 16.6091 21.3172 16.4775C21.4094 16.445 21.5044 16.4105 21.6003 16.4011C21.7319 16.3881 21.866 16.3979 21.9993 16.3979C22.4794 16.4003 22.9413 16.4673 23.3378 16.7728C23.5922 16.9687 23.6604 17.2287 23.4959 17.4956C23.2623 17.8742 22.906 18.0643 22.4685 18.1009C21.7791 18.1582 21.2952 17.8368 21.0084 17.236ZM40.1184 17.1108C40.1737 16.6542 40.2179 16.1964 40.2744 15.7398C40.2972 15.5561 40.2005 15.5066 40.0465 15.5021C39.5623 15.4887 39.078 15.4716 38.5938 15.4627C38.0478 15.4529 37.5164 15.5407 37.011 15.7483C36.4504 15.979 36.0234 16.3487 35.8491 16.9589C35.7216 17.4089 35.6812 17.8791 35.7301 18.3442C35.798 19.0635 35.9609 19.7706 36.2148 20.447C36.5536 21.3493 36.9082 22.2511 37.3319 23.1156C37.906 24.286 38.5556 25.4191 39.1653 26.5716C39.3283 26.8791 39.4652 27.2001 39.635 27.5592C39.9773 26.8452 40.1644 26.0668 40.1838 25.2753C40.2005 24.6212 40.1481 23.9643 40.1099 23.3098C40.0859 22.9093 40.0294 22.5111 39.9904 22.1114C39.936 21.5544 39.8535 20.9978 39.8409 20.4397C39.8283 19.8721 39.8686 19.3013 39.9173 18.7346C39.9632 18.1911 40.053 17.652 40.1184 17.1108ZM39.026 16.6713C38.846 17.1681 38.4613 17.4484 37.9624 17.5309C37.4973 17.6073 37.0898 17.4354 36.7868 17.0645C36.571 16.8005 36.6535 16.4877 36.9769 16.3093C37.3482 16.1038 37.7565 16.0518 38.2379 16.0205C38.3687 16.0444 38.5657 16.0643 38.753 16.118C39.0248 16.1948 39.1251 16.3991 39.026 16.6713ZM24.6358 31.9707C24.3697 31.7533 24.0179 31.7407 23.7648 31.9792C23.4508 32.2758 23.1745 32.615 22.8983 32.9493C22.5794 33.3357 22.2804 33.7374 21.8688 34.0368C21.27 34.4719 20.5721 34.6523 19.8705 34.8229C19.3127 34.9586 18.7525 35.0846 18.1931 35.215L18.1862 35.2873C18.3523 35.3641 18.5132 35.4599 18.6863 35.5148C19.5394 35.7849 20.4072 35.9194 21.3086 35.843C21.9594 35.7878 22.5794 35.646 23.1668 35.3673C23.9753 34.9842 24.5972 34.3773 25.1262 33.6712C25.2147 33.5534 25.2549 33.3791 25.2655 33.2272C25.3017 32.6905 25.0291 32.2916 24.6358 31.9707ZM45.6597 32.1843C44.9731 32.2579 44.2857 32.3359 43.5971 32.3753C43.2648 32.3944 42.9276 32.331 42.5921 32.3038C42.0294 32.2583 41.4802 32.1332 41.0044 31.8325C40.729 31.6591 40.5003 31.6396 40.2078 31.7379C39.7902 31.8784 39.4493 32.0921 39.3486 32.5447C39.2799 32.8506 39.2551 33.1675 39.2275 33.4807C39.2222 33.5359 39.2913 33.6375 39.3441 33.6513C39.6663 33.7362 39.99 33.8366 40.3195 33.8662C40.7241 33.9028 41.1361 33.891 41.5435 33.8707C41.9835 33.8488 42.4263 33.8203 42.8598 33.7472C43.8815 33.5758 44.8699 33.2962 45.7478 32.7169C46.0643 32.5077 46.3779 32.294 46.6923 32.0824L46.6663 32.0377C46.3308 32.0877 45.9968 32.1486 45.6597 32.1843Z" fill="#336791"/>
</svg>
