<svg width="52" height="52" viewBox="0 0 52 52" fill="none" xmlns="http://www.w3.org/2000/svg">
<path d="M25.9984 30.6314C28.5562 30.6314 30.6297 28.5579 30.6297 26.0001C30.6297 23.4424 28.5562 21.3689 25.9984 21.3689C23.4407 21.3689 21.3672 23.4424 21.3672 26.0001C21.3672 28.5579 23.4407 30.6314 25.9984 30.6314Z" fill="#61DAFB"/>
<path d="M43.5883 18.3626C42.6945 18.0376 41.7602 17.7126 40.7852 17.4283C41.0289 16.4533 41.232 15.4783 41.3945 14.5439C42.2477 9.1814 41.3133 5.40327 38.7133 3.94077C37.9414 3.4939 37.0883 3.29077 36.1133 3.29077C33.2695 3.29077 29.6539 5.40327 25.9977 8.93765C22.3414 5.40327 18.7258 3.29077 15.882 3.29077C14.907 3.29077 14.0539 3.4939 13.282 3.94077C10.682 5.4439 9.74766 9.22202 10.6008 14.5439C10.7633 15.4783 10.9664 16.4533 11.2102 17.4283C10.2352 17.7126 9.30078 17.997 8.40703 18.3626C3.32891 20.3126 0.566406 22.9939 0.566406 26.0001C0.566406 29.0064 3.36953 31.6877 8.40703 33.6377C9.30078 33.9627 10.2352 34.2876 11.2102 34.572C10.9664 35.547 10.7633 36.522 10.6008 37.4564C9.74766 42.8189 10.682 46.597 13.282 48.0595C14.0539 48.5064 14.907 48.7095 15.882 48.7095C18.7664 48.7095 22.382 46.597 25.9977 43.0626C29.6539 46.597 33.2695 48.7095 36.1133 48.7095C37.0883 48.7095 37.9414 48.5064 38.7133 48.0595C41.3133 46.5564 42.2477 42.7783 41.3945 37.4564C41.232 36.522 41.0289 35.547 40.7852 34.572C41.7602 34.2876 42.6945 34.0033 43.5883 33.6377C48.6664 31.6877 51.4289 29.0064 51.4289 26.0001C51.4289 22.9939 48.6664 20.3126 43.5883 18.3626ZM37.5758 5.97202C39.2414 6.94702 39.8102 9.95327 39.1195 14.2189C38.9977 15.072 38.7945 15.9658 38.5508 16.9001C36.4383 16.4126 34.2039 16.0876 31.8477 15.8845C30.4664 13.9345 29.0445 12.1876 27.6227 10.6033C30.6289 7.63765 33.6758 5.6064 36.1539 5.6064C36.682 5.6064 37.1695 5.72827 37.5758 5.97202ZM33.0258 30.0626C32.2945 31.3626 31.4414 32.6626 30.5477 33.9626C29.0445 34.0845 27.5414 34.1251 25.9977 34.1251C24.4133 34.1251 22.9102 34.0845 21.4477 33.9626C20.5539 32.6626 19.7414 31.3626 19.0102 30.0626C18.2383 28.722 17.507 27.3408 16.857 26.0001C17.507 24.6595 18.2383 23.2783 19.0102 21.9376C19.7414 20.6376 20.5945 19.3376 21.4883 18.0376C22.9914 17.9158 24.4945 17.8751 26.0383 17.8751C27.6227 17.8751 29.1258 17.9158 30.5883 18.0376C31.482 19.3376 32.2945 20.6376 33.0258 21.9376C33.7977 23.2783 34.5289 24.6595 35.1789 26.0001C34.4883 27.3408 33.7977 28.6814 33.0258 30.0626ZM36.3977 28.722C37.007 30.1439 37.4945 31.5251 37.9414 32.9064C36.5602 33.2314 35.0977 33.4751 33.5539 33.6783C34.0414 32.9064 34.5695 32.0939 35.0164 31.2408C35.5039 30.3876 35.9508 29.5345 36.3977 28.722ZM25.9977 39.7314C25.0227 38.6752 24.0883 37.5377 23.1945 36.3595C24.1289 36.4002 25.0633 36.4408 25.9977 36.4408C26.932 36.4408 27.8664 36.4002 28.8008 36.3595C27.907 37.5377 26.9727 38.6752 25.9977 39.7314ZM18.4414 33.6377C16.8977 33.4345 15.4352 33.1908 14.0539 32.8658C14.5008 31.5252 14.9883 30.1033 15.5977 28.6814C16.0445 29.4939 16.4914 30.347 16.9789 31.1595C17.4664 32.0533 17.9539 32.8252 18.4414 33.6377ZM15.5977 23.2783C14.9883 21.8564 14.5008 20.4751 14.0539 19.0939C15.4352 18.7689 16.8977 18.5251 18.4414 18.322C17.9539 19.0939 17.4258 19.9064 16.9789 20.7595C16.4914 21.6126 16.0445 22.4658 15.5977 23.2783ZM25.9977 12.2689C26.9727 13.3251 27.907 14.4626 28.8008 15.6408C27.8664 15.6001 26.932 15.5595 25.9977 15.5595C25.0633 15.5595 24.1289 15.6001 23.1945 15.6408C24.0883 14.4626 25.0227 13.3251 25.9977 12.2689ZM35.0164 20.8001L33.5539 18.3626C35.0977 18.5658 36.5602 18.8095 37.9414 19.1345C37.4945 20.4751 37.007 21.897 36.3977 23.3189C35.9508 22.4658 35.5039 21.6126 35.0164 20.8001ZM12.8758 14.2189C12.1852 9.95327 12.7539 6.94702 14.4195 5.97202C14.8258 5.72827 15.3133 5.6064 15.8414 5.6064C18.2789 5.6064 21.3258 7.59702 24.3727 10.6033C22.9508 12.147 21.5289 13.9345 20.1477 15.8845C17.7914 16.0876 15.557 16.4533 13.4445 16.9001C13.2008 15.9658 13.0383 15.072 12.8758 14.2189ZM2.84141 26.0001C2.84141 24.0908 5.15703 22.0595 9.21953 20.5564C10.032 20.2314 10.9258 19.947 11.8195 19.7033C12.4695 21.7345 13.282 23.8876 14.257 26.0408C13.282 28.1939 12.4289 30.3064 11.8195 32.3376C6.21328 30.7126 2.84141 28.2751 2.84141 26.0001ZM14.4195 46.0283C12.7539 45.0533 12.1852 42.047 12.8758 37.7814C12.9977 36.9283 13.2008 36.0345 13.4445 35.1001C15.557 35.5877 17.7914 35.9127 20.1477 36.1158C21.5289 38.0658 22.9508 39.8126 24.3727 41.397C21.3664 44.3627 18.3195 46.3939 15.8414 46.3939C15.3133 46.3939 14.8258 46.272 14.4195 46.0283ZM39.1195 37.7814C39.8102 42.047 39.2414 45.0533 37.5758 46.0283C37.1695 46.272 36.682 46.3939 36.1539 46.3939C33.7164 46.3939 30.6695 44.4033 27.6227 41.397C29.0445 39.8533 30.4664 38.0658 31.8477 36.1158C34.2039 35.9127 36.4383 35.547 38.5508 35.1001C38.7945 36.0345 38.957 36.9283 39.1195 37.7814ZM42.7758 31.4439C41.9633 31.7689 41.0695 32.0533 40.1758 32.297C39.5258 30.2658 38.7133 28.1126 37.7383 25.9595C38.7133 23.8064 39.5664 21.6939 40.1758 19.6626C45.782 21.2876 49.1539 23.7251 49.1539 26.0001C49.1539 27.9095 46.7977 29.9408 42.7758 31.4439Z" fill="#61DAFB"/>
</svg>
