<svg width="53" height="54" viewBox="0 0 53 54" fill="none" xmlns="http://www.w3.org/2000/svg">
<path d="M47.3086 3.69878C46.5804 5.44594 45.648 7.10084 44.5311 8.62903C39.6374 3.73815 33.002 0.990342 26.0833 0.989502C11.7748 0.989502 2.41749e-08 12.774 2.41749e-08 27.0984C-0.00015213 30.6356 0.717926 34.1361 2.11072 37.3876C3.5035 40.639 5.542 43.5739 8.10266 46.0142L9.06466 46.8673C13.7662 50.8313 19.7168 53.007 25.8663 53.0106C39.4704 53.0106 50.9064 42.3506 51.8749 28.7644C52.5862 22.1137 50.6354 13.7019 47.3086 3.69878ZM11.8085 46.1629C11.599 46.4209 11.3347 46.629 11.0347 46.7719C10.7346 46.9149 10.4065 46.9891 10.0742 46.9892C8.84813 46.9892 7.84509 45.9801 7.84509 44.754C7.84509 43.5284 8.85463 42.5192 10.0742 42.5192C10.582 42.5192 11.0837 42.6951 11.4766 43.0205C12.4317 43.7924 12.5808 45.2078 11.8085 46.1629ZM47.2006 38.3474C40.7643 46.9283 27.0181 44.0362 18.2041 44.4493C18.2041 44.4493 16.6392 44.5444 15.0674 44.8015C15.0674 44.8015 15.6565 44.5509 16.4223 44.2596C22.6078 42.1061 25.5344 41.686 29.2943 39.7559C36.374 36.1529 43.3725 28.2696 44.8293 20.0678C42.133 27.958 33.9621 34.7375 26.5168 37.4939C21.4155 39.3769 12.2013 41.2054 12.2013 41.2054L11.8288 41.0088C5.55547 37.9546 5.36534 24.3619 16.7676 19.9732C21.7608 18.0496 26.5371 19.1062 31.93 17.8192C37.6886 16.4514 44.3483 12.1301 47.058 6.49541C50.0931 15.5101 53.7448 29.624 47.2002 38.3474H47.2006Z" fill="#77BC1F"/>
</svg>
