<svg width="52" height="52" viewBox="0 0 52 52" fill="none" xmlns="http://www.w3.org/2000/svg">
<path d="M26 10.4009C19.0665 10.4009 14.7347 13.8662 13 20.7997C15.5992 17.3339 18.6335 16.0343 22.0992 16.9009C24.078 17.3941 25.4922 18.8289 27.0583 20.419C29.6071 23.0056 32.5573 26.0001 39 26.0001C45.9331 26.0001 50.2653 22.5343 52 15.5993C49.4004 19.067 46.3665 20.3666 42.9004 19.5001C40.922 19.0065 39.5094 17.572 37.9413 15.9819C35.3941 13.3953 32.4448 10.4009 26 10.4009ZM13 26.0001C6.06694 26.0001 1.73469 29.4658 0 36.4009C2.59919 32.9331 5.63306 31.6335 9.09919 32.5001C11.078 32.9937 12.4922 34.4281 14.0583 36.0182C16.6071 38.6048 19.5573 41.5993 26 41.5993C32.9331 41.5993 37.2653 38.1339 39 31.2005C36.4004 34.6662 33.3665 35.9658 29.9004 35.0993C27.922 34.6061 26.5094 33.1712 24.9413 31.5811C22.3941 28.9945 19.4448 26.0001 13 26.0001Z" fill="#38B2AC"/>
</svg>
