<svg width="86" height="100" viewBox="0 0 86 100" fill="none" xmlns="http://www.w3.org/2000/svg">
<path d="M72.8003 2.05928C83.0121 4.83094 86.2167 13.1461 85.3685 20.6295C84.5278 28.0456 76.6105 34.6524 65.001 34.2241C68.1624 34.4709 78.1105 38.1354 80.1318 46.9604C82.2268 56.1068 77.5415 61.7556 71.7529 64.699C62.6701 69.3174 52.6393 69.3043 43.9985 68.75C49.3092 71.7054 56.9139 77.2453 57.8753 85.7636C58.8366 94.282 51.5911 102.394 36.928 99.3448C22.2648 96.296 -5.56786 83.75 1.84096 62.2045C4.81189 53.5649 14.5443 50.3071 20.1699 49.1777C22.6053 48.6888 29.8581 47.5147 40.0698 47.5147C27.8266 46.3365 8.80684 40.3083 7.86343 26.7271C5.97663 -0.435108 54.5288 -2.8999 72.8003 2.05928Z" fill="#64BA8B"/>
</svg>
