<svg width="101" height="101" viewBox="0 0 101 101" fill="none" xmlns="http://www.w3.org/2000/svg">
<path d="M86.1094 40.9587C95.0082 42.9695 100.5 46.0776 100.5 50.5C100.5 54.9224 95.0082 58.0305 86.1094 60.0413C92.8108 66.2323 96.013 71.6701 93.8018 75.5C91.5905 79.3299 85.2803 79.2757 76.5681 76.5676C79.2762 85.2798 79.3304 91.5901 75.5005 93.8013C71.6705 96.0125 66.2326 92.8102 60.0415 86.1086C58.0307 95.0079 54.9225 100.5 50.5 100.5C46.0777 100.5 42.9695 95.0082 40.9587 86.1094C34.7679 92.8105 29.3303 96.0124 25.5005 93.8013C21.6706 91.5901 21.7248 85.2798 24.4329 76.5676C15.7207 79.2757 9.41043 79.3299 7.19922 75.5C4.98802 71.6701 8.19009 66.2324 14.8914 60.0415C5.99212 58.0306 0.499999 54.9225 0.5 50.5C0.5 46.0775 5.99213 42.9693 14.8914 40.9585C8.19009 34.7676 4.98802 29.3299 7.19922 25.5C9.41043 21.6701 15.7207 21.7243 24.4329 24.4324C21.7248 15.7202 21.6706 9.40994 25.5005 7.19873C29.3303 4.98757 34.7679 8.1895 40.9587 14.8906C42.9695 5.99179 46.0776 0.5 50.5 0.5C54.9225 0.5 58.0307 5.99214 60.0415 14.8914C66.2326 8.18977 71.6705 4.98747 75.5005 7.19873C79.3304 9.40994 79.2762 15.7202 76.5681 24.4324C85.2803 21.7243 91.5905 21.6701 93.8018 25.5C96.013 29.3299 92.8108 34.7677 86.1094 40.9587Z" fill="#3E246E"/>
</svg>
